<svg width="195" height="66" viewBox="0 0 195 66" fill="none" xmlns="http://www.w3.org/2000/svg">
<path d="M98.44 23.624H106.192V26H95.2V23.864L102.928 11.696H95.2V9.32H106.192V11.456L98.44 23.624ZM121.303 19.064C121.303 19.56 121.271 20.008 121.207 20.408H111.103C111.183 21.464 111.575 22.312 112.279 22.952C112.983 23.592 113.847 23.912 114.871 23.912C116.343 23.912 117.383 23.296 117.991 22.064H120.943C120.543 23.28 119.815 24.28 118.759 25.064C117.719 25.832 116.423 26.216 114.871 26.216C113.607 26.216 112.471 25.936 111.463 25.376C110.471 24.8 109.687 24 109.111 22.976C108.551 21.936 108.271 20.736 108.271 19.376C108.271 18.016 108.543 16.824 109.087 15.8C109.647 14.76 110.423 13.96 111.415 13.4C112.423 12.84 113.575 12.56 114.871 12.56C116.119 12.56 117.231 12.832 118.207 13.376C119.183 13.92 119.943 14.688 120.487 15.68C121.031 16.656 121.303 17.784 121.303 19.064ZM118.447 18.2C118.431 17.192 118.071 16.384 117.367 15.776C116.663 15.168 115.791 14.864 114.751 14.864C113.807 14.864 112.999 15.168 112.327 15.776C111.655 16.368 111.255 17.176 111.127 18.2H118.447ZM126.731 14.72C127.195 14.112 127.827 13.6 128.627 13.184C129.427 12.768 130.331 12.56 131.339 12.56C132.491 12.56 133.539 12.848 134.483 13.424C135.443 13.984 136.195 14.776 136.739 15.8C137.283 16.824 137.555 18 137.555 19.328C137.555 20.656 137.283 21.848 136.739 22.904C136.195 23.944 135.443 24.76 134.483 25.352C133.539 25.928 132.491 26.216 131.339 26.216C130.331 26.216 129.435 26.016 128.651 25.616C127.867 25.2 127.227 24.688 126.731 24.08V32.288H123.995V12.776H126.731V14.72ZM134.771 19.328C134.771 18.416 134.579 17.632 134.195 16.976C133.827 16.304 133.331 15.8 132.707 15.464C132.099 15.112 131.443 14.936 130.739 14.936C130.051 14.936 129.395 15.112 128.771 15.464C128.163 15.816 127.667 16.328 127.283 17C126.915 17.672 126.731 18.464 126.731 19.376C126.731 20.288 126.915 21.088 127.283 21.776C127.667 22.448 128.163 22.96 128.771 23.312C129.395 23.664 130.051 23.84 130.739 23.84C131.443 23.84 132.099 23.664 132.707 23.312C133.331 22.944 133.827 22.416 134.195 21.728C134.579 21.04 134.771 20.24 134.771 19.328ZM142.997 8.24V26H140.261V8.24H142.997ZM147.981 11.024C147.485 11.024 147.069 10.856 146.733 10.52C146.397 10.184 146.229 9.768 146.229 9.272C146.229 8.776 146.397 8.36 146.733 8.024C147.069 7.688 147.485 7.52 147.981 7.52C148.461 7.52 148.869 7.688 149.205 8.024C149.541 8.36 149.709 8.776 149.709 9.272C149.709 9.768 149.541 10.184 149.205 10.52C148.869 10.856 148.461 11.024 147.981 11.024ZM149.325 12.776V26H146.589V12.776H149.325ZM159.589 12.56C160.629 12.56 161.557 12.776 162.373 13.208C163.205 13.64 163.853 14.28 164.317 15.128C164.781 15.976 165.013 17 165.013 18.2V26H162.301V18.608C162.301 17.424 162.005 16.52 161.413 15.896C160.821 15.256 160.013 14.936 158.989 14.936C157.965 14.936 157.149 15.256 156.541 15.896C155.949 16.52 155.653 17.424 155.653 18.608V26H152.917V12.776H155.653V14.288C156.101 13.744 156.669 13.32 157.357 13.016C158.061 12.712 158.805 12.56 159.589 12.56Z" fill="white" fill-opacity="0.78"/>
<path d="M102.478 46.454V47.786H97.024V52.016H101.452V53.348H97.024V59H95.386V46.454H102.478ZM106.094 50.738C106.382 50.174 106.79 49.736 107.318 49.424C107.858 49.112 108.512 48.956 109.28 48.956V50.648H108.848C107.012 50.648 106.094 51.644 106.094 53.636V59H104.456V49.136H106.094V50.738ZM120.171 53.69C120.171 54.002 120.153 54.332 120.117 54.68H112.233C112.293 55.652 112.623 56.414 113.223 56.966C113.835 57.506 114.573 57.776 115.437 57.776C116.145 57.776 116.733 57.614 117.201 57.29C117.681 56.954 118.017 56.51 118.209 55.958H119.973C119.709 56.906 119.181 57.68 118.389 58.28C117.597 58.868 116.613 59.162 115.437 59.162C114.501 59.162 113.661 58.952 112.917 58.532C112.185 58.112 111.609 57.518 111.189 56.75C110.769 55.97 110.559 55.07 110.559 54.05C110.559 53.03 110.763 52.136 111.171 51.368C111.579 50.6 112.149 50.012 112.881 49.604C113.625 49.184 114.477 48.974 115.437 48.974C116.373 48.974 117.201 49.178 117.921 49.586C118.641 49.994 119.193 50.558 119.577 51.278C119.973 51.986 120.171 52.79 120.171 53.69ZM118.479 53.348C118.479 52.724 118.341 52.19 118.065 51.746C117.789 51.29 117.411 50.948 116.931 50.72C116.463 50.48 115.941 50.36 115.365 50.36C114.537 50.36 113.829 50.624 113.241 51.152C112.665 51.68 112.335 52.412 112.251 53.348H118.479ZM131.333 53.69C131.333 54.002 131.315 54.332 131.279 54.68H123.395C123.455 55.652 123.785 56.414 124.385 56.966C124.997 57.506 125.735 57.776 126.599 57.776C127.307 57.776 127.895 57.614 128.363 57.29C128.843 56.954 129.179 56.51 129.371 55.958H131.135C130.871 56.906 130.343 57.68 129.551 58.28C128.759 58.868 127.775 59.162 126.599 59.162C125.663 59.162 124.823 58.952 124.079 58.532C123.347 58.112 122.771 57.518 122.351 56.75C121.931 55.97 121.721 55.07 121.721 54.05C121.721 53.03 121.925 52.136 122.333 51.368C122.741 50.6 123.311 50.012 124.043 49.604C124.787 49.184 125.639 48.974 126.599 48.974C127.535 48.974 128.363 49.178 129.083 49.586C129.803 49.994 130.355 50.558 130.739 51.278C131.135 51.986 131.333 52.79 131.333 53.69ZM129.641 53.348C129.641 52.724 129.503 52.19 129.227 51.746C128.951 51.29 128.573 50.948 128.093 50.72C127.625 50.48 127.103 50.36 126.527 50.36C125.699 50.36 124.991 50.624 124.403 51.152C123.827 51.68 123.497 52.412 123.413 53.348H129.641ZM147.924 59L146.286 57.344C145.674 57.98 145.02 58.454 144.324 58.766C143.628 59.066 142.842 59.216 141.966 59.216C141.102 59.216 140.334 59.06 139.662 58.748C139.002 58.436 138.486 57.992 138.114 57.416C137.754 56.84 137.574 56.168 137.574 55.4C137.574 54.524 137.82 53.756 138.312 53.096C138.816 52.424 139.554 51.896 140.526 51.512C140.142 51.056 139.866 50.636 139.698 50.252C139.53 49.868 139.446 49.448 139.446 48.992C139.446 48.464 139.578 47.99 139.842 47.57C140.118 47.138 140.508 46.802 141.012 46.562C141.516 46.322 142.098 46.202 142.758 46.202C143.406 46.202 143.97 46.328 144.45 46.58C144.93 46.832 145.29 47.186 145.53 47.642C145.77 48.086 145.878 48.584 145.854 49.136H144.216C144.228 48.644 144.09 48.26 143.802 47.984C143.514 47.696 143.142 47.552 142.686 47.552C142.206 47.552 141.816 47.69 141.516 47.966C141.228 48.23 141.084 48.572 141.084 48.992C141.084 49.352 141.18 49.7 141.372 50.036C141.576 50.372 141.912 50.786 142.38 51.278L146.124 55.04L146.448 54.536L147.672 52.484H149.436L147.96 55.04C147.756 55.4 147.516 55.778 147.24 56.174L150.066 59H147.924ZM141.966 57.812C142.614 57.812 143.196 57.686 143.712 57.434C144.24 57.182 144.738 56.792 145.206 56.264L141.516 52.556C139.98 53.144 139.212 54.074 139.212 55.346C139.212 56.054 139.464 56.642 139.968 57.11C140.484 57.578 141.15 57.812 141.966 57.812ZM164.788 50.126C164.788 51.17 164.428 52.04 163.708 52.736C163 53.42 161.914 53.762 160.45 53.762H158.038V59H156.4V46.454H160.45C161.866 46.454 162.94 46.796 163.672 47.48C164.416 48.164 164.788 49.046 164.788 50.126ZM160.45 52.412C161.362 52.412 162.034 52.214 162.466 51.818C162.898 51.422 163.114 50.858 163.114 50.126C163.114 48.578 162.226 47.804 160.45 47.804H158.038V52.412H160.45ZM166.212 54.032C166.212 53.024 166.416 52.142 166.824 51.386C167.232 50.618 167.79 50.024 168.498 49.604C169.218 49.184 170.016 48.974 170.892 48.974C171.756 48.974 172.506 49.16 173.142 49.532C173.778 49.904 174.252 50.372 174.564 50.936V49.136H176.22V59H174.564V57.164C174.24 57.74 173.754 58.22 173.106 58.604C172.47 58.976 171.726 59.162 170.874 59.162C169.998 59.162 169.206 58.946 168.498 58.514C167.79 58.082 167.232 57.476 166.824 56.696C166.416 55.916 166.212 55.028 166.212 54.032ZM174.564 54.05C174.564 53.306 174.414 52.658 174.114 52.106C173.814 51.554 173.406 51.134 172.89 50.846C172.386 50.546 171.828 50.396 171.216 50.396C170.604 50.396 170.046 50.54 169.542 50.828C169.038 51.116 168.636 51.536 168.336 52.088C168.036 52.64 167.886 53.288 167.886 54.032C167.886 54.788 168.036 55.448 168.336 56.012C168.636 56.564 169.038 56.99 169.542 57.29C170.046 57.578 170.604 57.722 171.216 57.722C171.828 57.722 172.386 57.578 172.89 57.29C173.406 56.99 173.814 56.564 174.114 56.012C174.414 55.448 174.564 54.794 174.564 54.05ZM179.834 47.534C179.522 47.534 179.258 47.426 179.042 47.21C178.826 46.994 178.718 46.73 178.718 46.418C178.718 46.106 178.826 45.842 179.042 45.626C179.258 45.41 179.522 45.302 179.834 45.302C180.134 45.302 180.386 45.41 180.59 45.626C180.806 45.842 180.914 46.106 180.914 46.418C180.914 46.73 180.806 46.994 180.59 47.21C180.386 47.426 180.134 47.534 179.834 47.534ZM180.626 49.136V59H178.988V49.136H180.626ZM182.805 54.032C182.805 53.024 183.009 52.142 183.417 51.386C183.825 50.618 184.383 50.024 185.091 49.604C185.811 49.184 186.615 48.974 187.503 48.974C188.271 48.974 188.985 49.154 189.645 49.514C190.305 49.862 190.809 50.324 191.157 50.9V45.68H192.813V59H191.157V57.146C190.833 57.734 190.353 58.22 189.717 58.604C189.081 58.976 188.337 59.162 187.485 59.162C186.609 59.162 185.811 58.946 185.091 58.514C184.383 58.082 183.825 57.476 183.417 56.696C183.009 55.916 182.805 55.028 182.805 54.032ZM191.157 54.05C191.157 53.306 191.007 52.658 190.707 52.106C190.407 51.554 189.999 51.134 189.483 50.846C188.979 50.546 188.421 50.396 187.809 50.396C187.197 50.396 186.639 50.54 186.135 50.828C185.631 51.116 185.229 51.536 184.929 52.088C184.629 52.64 184.479 53.288 184.479 54.032C184.479 54.788 184.629 55.448 184.929 56.012C185.229 56.564 185.631 56.99 186.135 57.29C186.639 57.578 187.197 57.722 187.809 57.722C188.421 57.722 188.979 57.578 189.483 57.29C189.999 56.99 190.407 56.564 190.707 56.012C191.007 55.448 191.157 54.794 191.157 54.05Z" fill="#FFA537" fill-opacity="0.55"/>
<g opacity="0.78">
<path fill-rule="evenodd" clip-rule="evenodd" d="M12.6315 41.3366L9.70191 42.3886L9.54462 50.9551L19.6858 47.3136C16.2075 46.1652 13.6674 44.1445 12.6315 41.3366Z" fill="#FDBD39"/>
<path fill-rule="evenodd" clip-rule="evenodd" d="M14.1646 32.2759L4 35.9259L9.70192 42.3885L12.6315 41.3366C11.5986 38.5368 12.2356 35.372 14.1646 32.2759Z" fill="#F69833"/>
<path fill-rule="evenodd" clip-rule="evenodd" d="M31.2698 19.9149C18.3262 24.5627 9.98148 34.1535 12.6315 41.3366L59.5047 24.5053C56.8546 17.3222 44.2135 15.267 31.2698 19.9149Z" fill="#FECF33"/>
<path fill-rule="evenodd" clip-rule="evenodd" d="M40.8663 45.927C53.8099 41.2791 62.1703 31.7308 59.5046 24.5052L12.6315 41.3365C15.2971 48.5622 27.9226 50.5748 40.8663 45.927Z" fill="#EE6723"/>
<path fill-rule="evenodd" clip-rule="evenodd" d="M59.5046 24.5052L12.6315 41.3365C13.5493 43.8244 17.0494 45.0501 21.9604 45.0501C26.7483 45.0501 32.8772 43.886 39.2668 41.5916C52.2106 36.9437 61.3173 29.4186 59.5046 24.5052Z" fill="#F69833"/>
<path fill-rule="evenodd" clip-rule="evenodd" d="M50.1756 20.7916C45.3877 20.7916 39.2589 21.9557 32.8692 24.2501C19.9255 28.898 10.8188 36.4231 12.6315 41.3365L59.5046 24.5052C58.5868 22.0173 55.0867 20.7916 50.1756 20.7916Z" fill="#FDBD39"/>
<path fill-rule="evenodd" clip-rule="evenodd" d="M47.587 51.4088H47.5867C46.2076 51.4088 44.173 50.1843 41.5394 47.7694C38.4237 44.9124 34.8547 40.7278 31.4896 35.9866C28.1247 31.2455 25.3596 26.5055 23.7039 22.6397C21.9 18.427 21.6428 15.8367 22.9394 14.9408C23.2237 14.7446 23.5665 14.6452 23.958 14.6452C25.0127 14.6452 27.0679 15.4171 30.8682 19.0945L30.9513 19.1749L30.94 19.2892C30.9141 19.5534 30.8901 19.8199 30.8688 20.0816L30.8264 20.6011L30.4536 20.2318C26.3589 16.177 24.5564 15.7392 23.9714 15.7392C23.8046 15.7392 23.6718 15.7726 23.5765 15.8384C23.0141 16.2268 22.9779 18.1294 24.7268 22.2132C26.353 26.0101 29.0778 30.6784 32.3993 35.3581C35.7209 40.0382 39.2354 44.161 42.2954 46.9669C45.5951 49.9925 47.0821 50.3192 47.5683 50.3192C47.7361 50.3192 47.8725 50.2838 47.9737 50.2138C48.567 49.8041 48.5677 47.7659 46.6173 43.3704L46.5278 43.1686L46.7238 43.0631C46.9198 42.9576 47.1094 42.8537 47.2872 42.7544L47.522 42.6232L47.6303 42.867C49.0132 45.9816 50.3059 49.9401 48.6108 51.1114C48.325 51.3087 47.9806 51.4088 47.587 51.4088ZM47.5867 50.9283H47.5871L47.5868 51.1685L47.5867 50.9283Z" fill="#EE6723"/>
<path fill-rule="evenodd" clip-rule="evenodd" d="M41.1805 45.7959L41.1608 46.0353C40.8335 50.0154 39.9719 54.8003 37.7254 54.994C37.6802 54.998 37.6333 55 37.5865 55C36.0603 55 34.6165 52.8507 33.2951 48.6117C32.0449 44.6013 31.0747 39.2167 30.5634 33.4499C30.052 27.6843 30.0596 22.2154 30.5849 18.0507C31.1575 13.5125 32.2476 11.1424 33.8247 11.0064C33.8713 11.0022 33.9197 11 33.9674 11C35.0745 11 36.7431 12.2322 38.4512 17.9717L37.3359 18.1833C36.7656 16.2653 36.144 14.7054 35.527 13.6335C34.9562 12.642 34.4013 12.096 33.9642 12.096C33.9499 12.096 33.9354 12.0966 33.9212 12.0978C33.2376 12.1568 32.242 13.7867 31.687 18.186C31.171 22.276 31.1648 27.663 31.6695 33.3546C32.1744 39.047 33.1287 44.3511 34.3565 48.2896C34.9064 50.0536 35.5095 51.5073 36.1006 52.4938C36.6458 53.4035 37.1733 53.9045 37.5861 53.9045C37.6003 53.9045 37.6145 53.9038 37.6286 53.9026C38.2826 53.8463 39.5153 52.1502 40.0341 46.1827L41.1805 45.7959Z" fill="#EE6723"/>
</g>
</svg>
