<svg width="212" height="66" viewBox="0 0 212 66" fill="none" xmlns="http://www.w3.org/2000/svg">
<path d="M107.464 14.288C107.464 15.136 107.264 15.936 106.864 16.688C106.464 17.44 105.824 18.056 104.944 18.536C104.064 19 102.936 19.232 101.56 19.232H98.536V26H95.8V9.32H101.56C102.84 9.32 103.92 9.544 104.8 9.992C105.696 10.424 106.36 11.016 106.792 11.768C107.24 12.52 107.464 13.36 107.464 14.288ZM101.56 17C102.6 17 103.376 16.768 103.888 16.304C104.4 15.824 104.656 15.152 104.656 14.288C104.656 12.464 103.624 11.552 101.56 11.552H98.536V17H101.56ZM112.809 14.696C113.209 14.024 113.737 13.504 114.393 13.136C115.065 12.752 115.857 12.56 116.769 12.56V15.392H116.073C115.001 15.392 114.185 15.664 113.625 16.208C113.081 16.752 112.809 17.696 112.809 19.04V26H110.073V12.776H112.809V14.696ZM125.02 26.216C123.772 26.216 122.644 25.936 121.636 25.376C120.628 24.8 119.836 24 119.26 22.976C118.684 21.936 118.396 20.736 118.396 19.376C118.396 18.032 118.692 16.84 119.284 15.8C119.876 14.76 120.684 13.96 121.708 13.4C122.732 12.84 123.876 12.56 125.14 12.56C126.404 12.56 127.548 12.84 128.572 13.4C129.596 13.96 130.404 14.76 130.996 15.8C131.588 16.84 131.884 18.032 131.884 19.376C131.884 20.72 131.58 21.912 130.972 22.952C130.364 23.992 129.532 24.8 128.476 25.376C127.436 25.936 126.284 26.216 125.02 26.216ZM125.02 23.84C125.724 23.84 126.38 23.672 126.988 23.336C127.612 23 128.116 22.496 128.5 21.824C128.884 21.152 129.076 20.336 129.076 19.376C129.076 18.416 128.892 17.608 128.524 16.952C128.156 16.28 127.668 15.776 127.06 15.44C126.452 15.104 125.796 14.936 125.092 14.936C124.388 14.936 123.732 15.104 123.124 15.44C122.532 15.776 122.06 16.28 121.708 16.952C121.356 17.608 121.18 18.416 121.18 19.376C121.18 20.8 121.54 21.904 122.26 22.688C122.996 23.456 123.916 23.84 125.02 23.84ZM133.677 19.376C133.677 18.016 133.949 16.824 134.493 15.8C135.053 14.76 135.821 13.96 136.797 13.4C137.773 12.84 138.893 12.56 140.157 12.56C141.757 12.56 143.077 12.944 144.117 13.712C145.173 14.464 145.885 15.544 146.253 16.952H143.301C143.061 16.296 142.677 15.784 142.149 15.416C141.621 15.048 140.957 14.864 140.157 14.864C139.037 14.864 138.141 15.264 137.469 16.064C136.813 16.848 136.485 17.952 136.485 19.376C136.485 20.8 136.813 21.912 137.469 22.712C138.141 23.512 139.037 23.912 140.157 23.912C141.741 23.912 142.789 23.216 143.301 21.824H146.253C145.869 23.168 145.149 24.24 144.093 25.04C143.037 25.824 141.725 26.216 140.157 26.216C138.893 26.216 137.773 25.936 136.797 25.376C135.821 24.8 135.053 24 134.493 22.976C133.949 21.936 133.677 20.736 133.677 19.376ZM151.716 14.696C152.116 14.024 152.644 13.504 153.3 13.136C153.972 12.752 154.764 12.56 155.676 12.56V15.392H154.98C153.908 15.392 153.092 15.664 152.532 16.208C151.988 16.752 151.716 17.696 151.716 19.04V26H148.98V12.776H151.716V14.696ZM170.311 19.064C170.311 19.56 170.279 20.008 170.215 20.408H160.111C160.191 21.464 160.583 22.312 161.287 22.952C161.991 23.592 162.855 23.912 163.879 23.912C165.351 23.912 166.391 23.296 166.999 22.064H169.951C169.551 23.28 168.823 24.28 167.767 25.064C166.727 25.832 165.431 26.216 163.879 26.216C162.615 26.216 161.479 25.936 160.471 25.376C159.479 24.8 158.695 24 158.119 22.976C157.559 21.936 157.279 20.736 157.279 19.376C157.279 18.016 157.551 16.824 158.095 15.8C158.655 14.76 159.431 13.96 160.423 13.4C161.431 12.84 162.583 12.56 163.879 12.56C165.127 12.56 166.239 12.832 167.215 13.376C168.191 13.92 168.951 14.688 169.495 15.68C170.039 16.656 170.311 17.784 170.311 19.064ZM167.455 18.2C167.439 17.192 167.079 16.384 166.375 15.776C165.671 15.168 164.799 14.864 163.759 14.864C162.815 14.864 162.007 15.168 161.335 15.776C160.663 16.368 160.263 17.176 160.135 18.2H167.455ZM172.091 19.328C172.091 18 172.363 16.824 172.907 15.8C173.467 14.776 174.219 13.984 175.163 13.424C176.123 12.848 177.179 12.56 178.331 12.56C179.371 12.56 180.275 12.768 181.043 13.184C181.827 13.584 182.451 14.088 182.915 14.696V12.776H185.675V26H182.915V24.032C182.451 24.656 181.819 25.176 181.019 25.592C180.219 26.008 179.307 26.216 178.283 26.216C177.147 26.216 176.107 25.928 175.163 25.352C174.219 24.76 173.467 23.944 172.907 22.904C172.363 21.848 172.091 20.656 172.091 19.328ZM182.915 19.376C182.915 18.464 182.723 17.672 182.339 17C181.971 16.328 181.483 15.816 180.875 15.464C180.267 15.112 179.611 14.936 178.907 14.936C178.203 14.936 177.547 15.112 176.939 15.464C176.331 15.8 175.835 16.304 175.451 16.976C175.083 17.632 174.899 18.416 174.899 19.328C174.899 20.24 175.083 21.04 175.451 21.728C175.835 22.416 176.331 22.944 176.939 23.312C177.563 23.664 178.219 23.84 178.907 23.84C179.611 23.84 180.267 23.664 180.875 23.312C181.483 22.96 181.971 22.448 182.339 21.776C182.723 21.088 182.915 20.288 182.915 19.376ZM192.461 15.008V22.328C192.461 22.824 192.573 23.184 192.797 23.408C193.037 23.616 193.437 23.72 193.997 23.72H195.677V26H193.517C192.285 26 191.341 25.712 190.685 25.136C190.029 24.56 189.701 23.624 189.701 22.328V15.008H188.141V12.776H189.701V9.488H192.461V12.776H195.677V15.008H192.461ZM210.318 19.064C210.318 19.56 210.286 20.008 210.222 20.408H200.118C200.198 21.464 200.59 22.312 201.294 22.952C201.998 23.592 202.862 23.912 203.886 23.912C205.358 23.912 206.398 23.296 207.006 22.064H209.958C209.558 23.28 208.83 24.28 207.774 25.064C206.734 25.832 205.438 26.216 203.886 26.216C202.622 26.216 201.486 25.936 200.478 25.376C199.486 24.8 198.702 24 198.126 22.976C197.566 21.936 197.286 20.736 197.286 19.376C197.286 18.016 197.558 16.824 198.102 15.8C198.662 14.76 199.438 13.96 200.43 13.4C201.438 12.84 202.59 12.56 203.886 12.56C205.134 12.56 206.246 12.832 207.222 13.376C208.198 13.92 208.958 14.688 209.502 15.68C210.046 16.656 210.318 17.784 210.318 19.064ZM207.462 18.2C207.446 17.192 207.086 16.384 206.382 15.776C205.678 15.168 204.806 14.864 203.766 14.864C202.822 14.864 202.014 15.168 201.342 15.776C200.67 16.368 200.27 17.176 200.142 18.2H207.462Z" fill="white" fill-opacity="0.78"/>
<path d="M103.774 50.126C103.774 51.17 103.414 52.04 102.694 52.736C101.986 53.42 100.9 53.762 99.436 53.762H97.024V59H95.386V46.454H99.436C100.852 46.454 101.926 46.796 102.658 47.48C103.402 48.164 103.774 49.046 103.774 50.126ZM99.436 52.412C100.348 52.412 101.02 52.214 101.452 51.818C101.884 51.422 102.1 50.858 102.1 50.126C102.1 48.578 101.212 47.804 99.436 47.804H97.024V52.412H99.436ZM105.198 54.032C105.198 53.024 105.402 52.142 105.81 51.386C106.218 50.618 106.776 50.024 107.484 49.604C108.204 49.184 109.002 48.974 109.878 48.974C110.742 48.974 111.492 49.16 112.128 49.532C112.764 49.904 113.238 50.372 113.55 50.936V49.136H115.206V59H113.55V57.164C113.226 57.74 112.74 58.22 112.092 58.604C111.456 58.976 110.712 59.162 109.86 59.162C108.984 59.162 108.192 58.946 107.484 58.514C106.776 58.082 106.218 57.476 105.81 56.696C105.402 55.916 105.198 55.028 105.198 54.032ZM113.55 54.05C113.55 53.306 113.4 52.658 113.1 52.106C112.8 51.554 112.392 51.134 111.876 50.846C111.372 50.546 110.814 50.396 110.202 50.396C109.59 50.396 109.032 50.54 108.528 50.828C108.024 51.116 107.622 51.536 107.322 52.088C107.022 52.64 106.872 53.288 106.872 54.032C106.872 54.788 107.022 55.448 107.322 56.012C107.622 56.564 108.024 56.99 108.528 57.29C109.032 57.578 109.59 57.722 110.202 57.722C110.814 57.722 111.372 57.578 111.876 57.29C112.392 56.99 112.8 56.564 113.1 56.012C113.4 55.448 113.55 54.794 113.55 54.05ZM118.82 47.534C118.508 47.534 118.244 47.426 118.028 47.21C117.812 46.994 117.704 46.73 117.704 46.418C117.704 46.106 117.812 45.842 118.028 45.626C118.244 45.41 118.508 45.302 118.82 45.302C119.12 45.302 119.372 45.41 119.576 45.626C119.792 45.842 119.9 46.106 119.9 46.418C119.9 46.73 119.792 46.994 119.576 47.21C119.372 47.426 119.12 47.534 118.82 47.534ZM119.612 49.136V59H117.974V49.136H119.612ZM121.792 54.032C121.792 53.024 121.996 52.142 122.404 51.386C122.812 50.618 123.37 50.024 124.078 49.604C124.798 49.184 125.602 48.974 126.49 48.974C127.258 48.974 127.972 49.154 128.632 49.514C129.292 49.862 129.796 50.324 130.144 50.9V45.68H131.8V59H130.144V57.146C129.82 57.734 129.34 58.22 128.704 58.604C128.068 58.976 127.324 59.162 126.472 59.162C125.596 59.162 124.798 58.946 124.078 58.514C123.37 58.082 122.812 57.476 122.404 56.696C121.996 55.916 121.792 55.028 121.792 54.032ZM130.144 54.05C130.144 53.306 129.994 52.658 129.694 52.106C129.394 51.554 128.986 51.134 128.47 50.846C127.966 50.546 127.408 50.396 126.796 50.396C126.184 50.396 125.626 50.54 125.122 50.828C124.618 51.116 124.216 51.536 123.916 52.088C123.616 52.64 123.466 53.288 123.466 54.032C123.466 54.788 123.616 55.448 123.916 56.012C124.216 56.564 124.618 56.99 125.122 57.29C125.626 57.578 126.184 57.722 126.796 57.722C127.408 57.722 127.966 57.578 128.47 57.29C128.986 56.99 129.394 56.564 129.694 56.012C129.994 55.448 130.144 54.794 130.144 54.05Z" fill="#FFA537" fill-opacity="0.55"/>
<g opacity="0.78">
<path d="M4 25.2667C4 18.1727 4 14.6257 5.38058 11.9161C6.59498 9.53273 8.53273 7.59498 10.9161 6.38058C13.6257 5 17.1727 5 24.2667 5H39.7333C46.8273 5 50.3743 5 53.0839 6.38058C55.4673 7.59498 57.405 9.53273 58.6194 11.9161C60 14.6257 60 18.1727 60 25.2667V40.7333C60 47.8273 60 51.3743 58.6194 54.0839C57.405 56.4673 55.4673 58.405 53.0839 59.6194C50.3743 61 46.8273 61 39.7333 61H24.2667C17.1727 61 13.6257 61 10.9161 59.6194C8.53273 58.405 6.59498 56.4673 5.38058 54.0839C4 51.3743 4 47.8273 4 40.7333V25.2667Z" fill="#1E252B"/>
<path d="M19.7334 33.8C11.9334 39.5408 10.4 47.9334 10.4 54.9334C10.7556 52.8445 12.3867 47.9467 16.0667 45.0667C21.5334 40.7884 31.5333 42.1978 42.4667 34.9334C53.4001 27.6689 54.4667 18.2 53.0667 10.9333C52.094 17.9451 48.7744 21.001 44.2 23.7334C34.2668 29.6667 28.0668 27.6667 19.7334 33.8Z" fill="url(#paint0_linear_50_149)"/>
<path d="M19.7334 33.8C11.9334 39.5408 10.4 47.9334 10.4 54.9334C10.7556 52.8445 12.3867 47.9467 16.0667 45.0667C21.5334 40.7884 31.5333 42.1978 42.4667 34.9334C53.4001 27.6689 54.4667 18.2 53.0667 10.9333C52.094 17.9451 48.7744 21.001 44.2 23.7334C34.2668 29.6667 28.0668 27.6667 19.7334 33.8Z" fill="url(#paint1_linear_50_149)"/>
<path d="M10.4933 52.0639C10.9213 45.739 12.975 38.774 19.7333 33.8C24.0777 30.6025 27.8422 29.6155 31.8582 28.5626C34.2018 27.9482 36.6311 27.3113 39.3112 26.1995C38.3334 27.1333 33.6871 29.3133 30.1825 30.7699C26.6871 32.2227 23.0018 33.7543 19.9334 35.8C13.777 39.9042 11.2737 47.045 10.4933 52.0639Z" fill="url(#paint2_linear_50_149)"/>
<path d="M10.4933 52.0639C10.9213 45.739 12.975 38.774 19.7333 33.8C24.0777 30.6025 27.8422 29.6155 31.8582 28.5626C34.2018 27.9482 36.6311 27.3113 39.3112 26.1995C38.3334 27.1333 33.6871 29.3133 30.1825 30.7699C26.6871 32.2227 23.0018 33.7543 19.9334 35.8C13.777 39.9042 11.2737 47.045 10.4933 52.0639Z" fill="url(#paint3_linear_50_149)"/>
<path d="M48.4355 29.7418C47.6689 30.4927 46.8141 31.1649 45.8668 31.7333C41.6001 34.2934 37.065 35.1189 32.6522 35.9223C29.1357 36.5624 25.6969 37.1884 22.5334 38.6667C15.4006 41.9998 11.0007 48.9324 10.4002 54.9322C10.4002 54.9324 10.4001 54.9327 10.4001 54.9329C10.4001 54.9318 10.4 54.9308 10.4 54.9297C10.4001 54.4717 10.4067 54.0078 10.4212 53.539C10.4575 52.7953 10.5344 51.9713 10.6616 51.0926C11.6033 46.1584 14.1644 39.646 19.9334 35.8C22.3756 34.1719 25.2084 32.8693 28.0254 31.673C30.5027 30.8597 32.7354 30.3535 34.8626 29.8712C38.2111 29.1121 41.2983 28.4122 44.6668 26.6667C51.7349 23.0041 53.5868 15.4776 53.089 11.0503C54.1458 16.6601 53.7186 23.5598 48.4355 29.7418Z" fill="url(#paint4_linear_50_149)"/>
<path d="M48.4353 29.7419C47.6687 30.4928 46.814 31.165 45.8667 31.7334C41.6 34.2934 37.0649 35.119 32.6521 35.9223C29.1357 36.5624 25.6968 37.1884 22.5334 38.6667C18.4313 40.5836 15.2331 43.691 13.1416 47.1268C14.987 44.5337 17.7983 41.637 21.2667 40.5334C24.6512 39.4565 27.8795 39.3452 31.2333 39.2296C32.1946 39.1965 33.1662 39.163 34.1547 39.1063C36.8189 38.1365 39.6109 36.8308 42.4666 34.9334C44.9281 33.2979 46.8895 31.5506 48.4353 29.7419Z" fill="url(#paint5_linear_50_149)"/>
<path d="M48.4353 29.7419C47.6687 30.4928 46.814 31.165 45.8667 31.7334C41.6 34.2934 37.0649 35.119 32.6521 35.9223C29.1357 36.5624 25.6968 37.1884 22.5334 38.6667C18.4313 40.5836 15.2331 43.691 13.1416 47.1268C14.987 44.5337 17.7983 41.637 21.2667 40.5334C24.6512 39.4565 27.8795 39.3452 31.2333 39.2296C32.1946 39.1965 33.1662 39.163 34.1547 39.1063C36.8189 38.1365 39.6109 36.8308 42.4666 34.9334C44.9281 33.2979 46.8895 31.5506 48.4353 29.7419Z" fill="url(#paint6_linear_50_149)"/>
<path d="M53.0889 11.0503C53.0816 11.0112 53.0741 10.9723 53.0666 10.9333C52.0939 17.9451 48.7744 21.001 44.2 23.7334C42.4671 24.7684 40.8479 25.5621 39.3111 26.1996C38.3331 27.1335 33.687 29.3134 30.1825 30.7699L30.1819 30.7701C29.4687 31.0666 28.7476 31.3663 28.0254 31.673C30.5027 30.8597 32.7353 30.3535 34.8625 29.8712C38.2111 29.1121 41.2982 28.4122 44.6667 26.6667C51.7349 23.0041 53.5867 15.4776 53.0889 11.0503Z" fill="url(#paint7_linear_50_149)"/>
<path d="M53.0889 11.0503C53.0816 11.0112 53.0741 10.9723 53.0666 10.9333C52.0939 17.9451 48.7744 21.001 44.2 23.7334C42.4671 24.7684 40.8479 25.5621 39.3111 26.1996C38.3331 27.1335 33.687 29.3134 30.1825 30.7699L30.1819 30.7701C29.4687 31.0666 28.7476 31.3663 28.0254 31.673C30.5027 30.8597 32.7353 30.3535 34.8625 29.8712C38.2111 29.1121 41.2982 28.4122 44.6667 26.6667C51.7349 23.0041 53.5867 15.4776 53.0889 11.0503Z" fill="url(#paint8_linear_50_149)"/>
</g>
<defs>
<linearGradient id="paint0_linear_50_149" x1="34.8" y1="37.4" x2="11.7334" y2="53.9333" gradientUnits="userSpaceOnUse">
<stop stop-color="#FE5004"/>
<stop offset="0.602538" stop-color="#FFB915"/>
<stop offset="1" stop-color="#FFFC41"/>
</linearGradient>
<linearGradient id="paint1_linear_50_149" x1="25.6667" y1="38.8" x2="25.8" y2="41.2" gradientUnits="userSpaceOnUse">
<stop stop-color="#FD3E00"/>
<stop offset="1" stop-color="#FD4400" stop-opacity="0"/>
</linearGradient>
<linearGradient id="paint2_linear_50_149" x1="39.3333" y1="25" x2="6.79999" y2="53.9333" gradientUnits="userSpaceOnUse">
<stop stop-color="#005FC6"/>
<stop offset="0.279756" stop-color="#23A4DF"/>
<stop offset="0.465158" stop-color="#3AC2B7"/>
<stop offset="0.640642" stop-color="#60EC7A"/>
<stop offset="0.818668" stop-color="#CFFDBD"/>
<stop offset="1" stop-color="#D0FCB6"/>
</linearGradient>
<linearGradient id="paint3_linear_50_149" x1="32.7333" y1="30.5333" x2="29.9333" y2="28" gradientUnits="userSpaceOnUse">
<stop stop-color="#0061CB"/>
<stop offset="1" stop-color="#067EEA" stop-opacity="0"/>
</linearGradient>
<linearGradient id="paint4_linear_50_149" x1="53.2" y1="11" x2="10.4" y2="54.8667" gradientUnits="userSpaceOnUse">
<stop stop-color="#8E55F1"/>
<stop offset="0.140795" stop-color="#8B48DF"/>
<stop offset="0.274905" stop-color="#E04DD9"/>
<stop offset="0.492309" stop-color="#F496C8"/>
<stop offset="0.633104" stop-color="#FAD2BA"/>
<stop offset="0.856964" stop-color="#FEF7E5"/>
<stop offset="1" stop-color="#FFF5BF"/>
</linearGradient>
<linearGradient id="paint5_linear_50_149" x1="48.9999" y1="29.3334" x2="14.0666" y2="45.1334" gradientUnits="userSpaceOnUse">
<stop stop-color="#F41A73"/>
<stop offset="0.399909" stop-color="#FC50A3"/>
<stop offset="0.584511" stop-color="#FE9485"/>
<stop offset="0.703104" stop-color="#FFAF88"/>
<stop offset="1" stop-color="#FFC385"/>
</linearGradient>
<linearGradient id="paint6_linear_50_149" x1="36.3999" y1="34.2" x2="36.4666" y2="37.4" gradientUnits="userSpaceOnUse">
<stop stop-color="#9B0008"/>
<stop offset="1" stop-color="#EA115A" stop-opacity="0"/>
</linearGradient>
<linearGradient id="paint7_linear_50_149" x1="53.2" y1="14.6" x2="21.6666" y2="35.2" gradientUnits="userSpaceOnUse">
<stop stop-color="#231283"/>
<stop offset="0.362865" stop-color="#7053C6"/>
<stop offset="0.466353" stop-color="#7272DB"/>
<stop offset="0.634311" stop-color="#399EE9"/>
<stop offset="1" stop-color="#00CFFF"/>
</linearGradient>
<linearGradient id="paint8_linear_50_149" x1="45.3333" y1="25" x2="46.7333" y2="26.8" gradientUnits="userSpaceOnUse">
<stop stop-color="#3F259D" stop-opacity="0"/>
<stop offset="1" stop-color="#412DAA"/>
</linearGradient>
</defs>
</svg>
