<svg width="213" height="66" viewBox="0 0 213 66" fill="none" xmlns="http://www.w3.org/2000/svg">
<path d="M107.464 14.288C107.464 15.136 107.264 15.936 106.864 16.688C106.464 17.44 105.824 18.056 104.944 18.536C104.064 19 102.936 19.232 101.56 19.232H98.536V26H95.8V9.32H101.56C102.84 9.32 103.92 9.544 104.8 9.992C105.696 10.424 106.36 11.016 106.792 11.768C107.24 12.52 107.464 13.36 107.464 14.288ZM101.56 17C102.6 17 103.376 16.768 103.888 16.304C104.4 15.824 104.656 15.152 104.656 14.288C104.656 12.464 103.624 11.552 101.56 11.552H98.536V17H101.56ZM123.393 9.32V26H120.657V18.704H112.809V26H110.073V9.32H112.809V16.472H120.657V9.32H123.393ZM138.659 14.288C138.659 15.136 138.459 15.936 138.059 16.688C137.659 17.44 137.019 18.056 136.139 18.536C135.259 19 134.131 19.232 132.755 19.232H129.731V26H126.995V9.32H132.755C134.035 9.32 135.115 9.544 135.995 9.992C136.891 10.424 137.555 11.016 137.987 11.768C138.435 12.52 138.659 13.36 138.659 14.288ZM132.755 17C133.795 17 134.571 16.768 135.083 16.304C135.595 15.824 135.851 15.152 135.851 14.288C135.851 12.464 134.819 11.552 132.755 11.552H129.731V17H132.755ZM146.765 26.168C145.645 26.168 144.637 25.976 143.741 25.592C142.845 25.192 142.141 24.632 141.629 23.912C141.117 23.192 140.861 22.352 140.861 21.392H143.789C143.853 22.112 144.133 22.704 144.629 23.168C145.141 23.632 145.853 23.864 146.765 23.864C147.709 23.864 148.445 23.64 148.973 23.192C149.501 22.728 149.765 22.136 149.765 21.416C149.765 20.856 149.597 20.4 149.261 20.048C148.941 19.696 148.533 19.424 148.037 19.232C147.557 19.04 146.885 18.832 146.021 18.608C144.933 18.32 144.045 18.032 143.357 17.744C142.685 17.44 142.109 16.976 141.629 16.352C141.149 15.728 140.909 14.896 140.909 13.856C140.909 12.896 141.149 12.056 141.629 11.336C142.109 10.616 142.781 10.064 143.645 9.68C144.509 9.296 145.509 9.104 146.645 9.104C148.261 9.104 149.581 9.512 150.605 10.328C151.645 11.128 152.221 12.232 152.333 13.64H149.309C149.261 13.032 148.973 12.512 148.445 12.08C147.917 11.648 147.221 11.432 146.357 11.432C145.573 11.432 144.933 11.632 144.437 12.032C143.941 12.432 143.693 13.008 143.693 13.76C143.693 14.272 143.845 14.696 144.149 15.032C144.469 15.352 144.869 15.608 145.349 15.8C145.829 15.992 146.485 16.2 147.317 16.424C148.421 16.728 149.317 17.032 150.005 17.336C150.709 17.64 151.301 18.112 151.781 18.752C152.277 19.376 152.525 20.216 152.525 21.272C152.525 22.12 152.293 22.92 151.829 23.672C151.381 24.424 150.717 25.032 149.837 25.496C148.973 25.944 147.949 26.168 146.765 26.168ZM158.945 15.008V22.328C158.945 22.824 159.057 23.184 159.281 23.408C159.521 23.616 159.921 23.72 160.481 23.72H162.161V26H160.001C158.769 26 157.825 25.712 157.169 25.136C156.513 24.56 156.185 23.624 156.185 22.328V15.008H154.625V12.776H156.185V9.488H158.945V12.776H162.161V15.008H158.945ZM170.419 26.216C169.171 26.216 168.043 25.936 167.035 25.376C166.027 24.8 165.235 24 164.659 22.976C164.083 21.936 163.795 20.736 163.795 19.376C163.795 18.032 164.091 16.84 164.683 15.8C165.275 14.76 166.083 13.96 167.107 13.4C168.131 12.84 169.275 12.56 170.539 12.56C171.803 12.56 172.947 12.84 173.971 13.4C174.995 13.96 175.803 14.76 176.395 15.8C176.987 16.84 177.283 18.032 177.283 19.376C177.283 20.72 176.979 21.912 176.371 22.952C175.763 23.992 174.931 24.8 173.875 25.376C172.835 25.936 171.683 26.216 170.419 26.216ZM170.419 23.84C171.123 23.84 171.779 23.672 172.387 23.336C173.011 23 173.515 22.496 173.899 21.824C174.283 21.152 174.475 20.336 174.475 19.376C174.475 18.416 174.291 17.608 173.923 16.952C173.555 16.28 173.067 15.776 172.459 15.44C171.851 15.104 171.195 14.936 170.491 14.936C169.787 14.936 169.131 15.104 168.523 15.44C167.931 15.776 167.459 16.28 167.107 16.952C166.755 17.608 166.579 18.416 166.579 19.376C166.579 20.8 166.939 21.904 167.659 22.688C168.395 23.456 169.315 23.84 170.419 23.84ZM182.724 14.696C183.124 14.024 183.652 13.504 184.308 13.136C184.98 12.752 185.772 12.56 186.684 12.56V15.392H185.988C184.916 15.392 184.1 15.664 183.54 16.208C182.996 16.752 182.724 17.696 182.724 19.04V26H179.988V12.776H182.724V14.696ZM205.206 12.56C206.246 12.56 207.174 12.776 207.99 13.208C208.822 13.64 209.47 14.28 209.934 15.128C210.414 15.976 210.654 17 210.654 18.2V26H207.942V18.608C207.942 17.424 207.646 16.52 207.054 15.896C206.462 15.256 205.654 14.936 204.63 14.936C203.606 14.936 202.79 15.256 202.182 15.896C201.59 16.52 201.294 17.424 201.294 18.608V26H198.582V18.608C198.582 17.424 198.286 16.52 197.694 15.896C197.102 15.256 196.294 14.936 195.27 14.936C194.246 14.936 193.43 15.256 192.822 15.896C192.23 16.52 191.934 17.424 191.934 18.608V26H189.198V12.776H191.934V14.288C192.382 13.744 192.95 13.32 193.638 13.016C194.326 12.712 195.062 12.56 195.846 12.56C196.902 12.56 197.846 12.784 198.678 13.232C199.51 13.68 200.15 14.328 200.598 15.176C200.998 14.376 201.622 13.744 202.47 13.28C203.318 12.8 204.23 12.56 205.206 12.56Z" fill="white" fill-opacity="0.9"/>
<path d="M102.478 46.454V47.786H97.024V52.016H101.452V53.348H97.024V59H95.386V46.454H102.478ZM106.094 50.738C106.382 50.174 106.79 49.736 107.318 49.424C107.858 49.112 108.512 48.956 109.28 48.956V50.648H108.848C107.012 50.648 106.094 51.644 106.094 53.636V59H104.456V49.136H106.094V50.738ZM120.171 53.69C120.171 54.002 120.153 54.332 120.117 54.68H112.233C112.293 55.652 112.623 56.414 113.223 56.966C113.835 57.506 114.573 57.776 115.437 57.776C116.145 57.776 116.733 57.614 117.201 57.29C117.681 56.954 118.017 56.51 118.209 55.958H119.973C119.709 56.906 119.181 57.68 118.389 58.28C117.597 58.868 116.613 59.162 115.437 59.162C114.501 59.162 113.661 58.952 112.917 58.532C112.185 58.112 111.609 57.518 111.189 56.75C110.769 55.97 110.559 55.07 110.559 54.05C110.559 53.03 110.763 52.136 111.171 51.368C111.579 50.6 112.149 50.012 112.881 49.604C113.625 49.184 114.477 48.974 115.437 48.974C116.373 48.974 117.201 49.178 117.921 49.586C118.641 49.994 119.193 50.558 119.577 51.278C119.973 51.986 120.171 52.79 120.171 53.69ZM118.479 53.348C118.479 52.724 118.341 52.19 118.065 51.746C117.789 51.29 117.411 50.948 116.931 50.72C116.463 50.48 115.941 50.36 115.365 50.36C114.537 50.36 113.829 50.624 113.241 51.152C112.665 51.68 112.335 52.412 112.251 53.348H118.479ZM131.333 53.69C131.333 54.002 131.315 54.332 131.279 54.68H123.395C123.455 55.652 123.785 56.414 124.385 56.966C124.997 57.506 125.735 57.776 126.599 57.776C127.307 57.776 127.895 57.614 128.363 57.29C128.843 56.954 129.179 56.51 129.371 55.958H131.135C130.871 56.906 130.343 57.68 129.551 58.28C128.759 58.868 127.775 59.162 126.599 59.162C125.663 59.162 124.823 58.952 124.079 58.532C123.347 58.112 122.771 57.518 122.351 56.75C121.931 55.97 121.721 55.07 121.721 54.05C121.721 53.03 121.925 52.136 122.333 51.368C122.741 50.6 123.311 50.012 124.043 49.604C124.787 49.184 125.639 48.974 126.599 48.974C127.535 48.974 128.363 49.178 129.083 49.586C129.803 49.994 130.355 50.558 130.739 51.278C131.135 51.986 131.333 52.79 131.333 53.69ZM129.641 53.348C129.641 52.724 129.503 52.19 129.227 51.746C128.951 51.29 128.573 50.948 128.093 50.72C127.625 50.48 127.103 50.36 126.527 50.36C125.699 50.36 124.991 50.624 124.403 51.152C123.827 51.68 123.497 52.412 123.413 53.348H129.641Z" fill="#FFA537"/>
<g clip-path="url(#clip0_50_97)">
<path d="M36.2057 14.8971L33.1886 5.75429L10.88 1L0 13.3429L34.0114 30.7143L36.2057 14.8971Z" fill="url(#paint0_linear_50_97)"/>
<path d="M25.6 38.8514L24.96 19.8343L0 13.3429L6.12571 50.0057L25.6 49.8229V38.8514Z" fill="url(#paint1_linear_50_97)"/>
<path d="M20.2057 38.4858L21.3943 23.4001L39.4971 4.84005L55.68 7.76577L64 28.5201L55.3143 37.1143L41.1428 34.8286L32.3657 44.0629L20.2057 38.4858Z" fill="url(#paint2_linear_50_97)"/>
<path d="M39.4972 4.84005L13.5315 27.8801L18.5601 57.5029L40.1372 65.0001L64.0001 50.7372L39.4972 4.84005Z" fill="url(#paint3_linear_50_97)"/>
<path d="M12.2513 13.2514H51.7485V52.7485H12.2513V13.2514Z" fill="black"/>
<path d="M16 45.3429H30.8114V47.8114H16V45.3429Z" fill="white"/>
<path d="M15.817 18.3714H22.4913C26.4227 18.3714 28.7999 20.6571 28.7999 24.04V24.1314C28.7999 27.9714 25.8742 29.8914 22.1256 29.8914H19.3827V34.8286H15.817V18.3714ZM22.3084 26.6C24.137 26.6 25.1427 25.5029 25.1427 24.1314V24.04C25.1427 22.3943 24.0456 21.5714 22.217 21.5714H19.4742V26.6H22.3084Z" fill="white"/>
<path d="M29.7142 32.4514L31.8171 29.8914C33.2799 31.0799 34.8342 31.9028 36.7542 31.9028C38.2171 31.9028 39.1314 31.3542 39.1314 30.3485V30.2571C39.1314 29.3428 38.5828 28.8856 35.8399 28.1542C32.5485 27.3314 30.3542 26.4171 30.3542 23.1256V23.0342C30.3542 20.0171 32.7314 18.0971 36.1142 18.0971C38.4914 18.0971 40.5942 18.8285 42.2399 20.1999L40.3199 22.9428C38.8571 21.9371 37.3942 21.2971 36.0228 21.2971C34.6514 21.2971 33.9199 21.9371 33.9199 22.7599V22.8514C33.9199 23.9485 34.6514 24.3142 37.4857 25.0456C40.7771 25.9599 42.6971 27.1485 42.6971 29.9828V30.0742C42.6971 33.3656 40.2285 35.1942 36.6628 35.1942C34.1942 35.1028 31.7257 34.1885 29.7142 32.4514Z" fill="white"/>
</g>
<defs>
<linearGradient id="paint0_linear_50_97" x1="0.510171" y1="43.8306" x2="27.3801" y2="8.33806" gradientUnits="userSpaceOnUse">
<stop offset="0.016" stop-color="#765AF8"/>
<stop offset="0.382" stop-color="#B345F1"/>
<stop offset="0.758" stop-color="#FA3293"/>
<stop offset="0.941" stop-color="#FF318C"/>
</linearGradient>
<linearGradient id="paint1_linear_50_97" x1="2.496" y1="45.2322" x2="29.323" y2="9.79634" gradientUnits="userSpaceOnUse">
<stop offset="0.016" stop-color="#765AF8"/>
<stop offset="0.382" stop-color="#B345F1"/>
<stop offset="0.758" stop-color="#FA3293"/>
<stop offset="0.941" stop-color="#FF318C"/>
</linearGradient>
<linearGradient id="paint2_linear_50_97" x1="46.4978" y1="43.4275" x2="31.3362" y2="7.44394" gradientUnits="userSpaceOnUse">
<stop offset="0.183" stop-color="#765AF8"/>
<stop offset="0.238" stop-color="#8655F6"/>
<stop offset="0.345" stop-color="#9F4CF3"/>
<stop offset="0.443" stop-color="#AE47F2"/>
<stop offset="0.522" stop-color="#B345F1"/>
</linearGradient>
<linearGradient id="paint3_linear_50_97" x1="57.8433" y1="53.4243" x2="22.5811" y2="26.1575" gradientUnits="userSpaceOnUse">
<stop offset="0.016" stop-color="#765AF8"/>
<stop offset="0.382" stop-color="#B345F1"/>
</linearGradient>
<clipPath id="clip0_50_97">
<rect width="64" height="64" fill="white" transform="translate(0 1)"/>
</clipPath>
</defs>
</svg>
