<svg width="189" height="66" viewBox="0 0 189 66" fill="none" xmlns="http://www.w3.org/2000/svg">
<path d="M106.576 9.32V11.552H102.136V26H99.4V11.552H94.936V9.32H106.576ZM115.083 26.216C113.835 26.216 112.707 25.936 111.699 25.376C110.691 24.8 109.899 24 109.323 22.976C108.747 21.936 108.459 20.736 108.459 19.376C108.459 18.032 108.755 16.84 109.347 15.8C109.939 14.76 110.747 13.96 111.771 13.4C112.795 12.84 113.939 12.56 115.203 12.56C116.467 12.56 117.611 12.84 118.635 13.4C119.659 13.96 120.467 14.76 121.059 15.8C121.651 16.84 121.947 18.032 121.947 19.376C121.947 20.72 121.643 21.912 121.035 22.952C120.427 23.992 119.595 24.8 118.539 25.376C117.499 25.936 116.347 26.216 115.083 26.216ZM115.083 23.84C115.787 23.84 116.443 23.672 117.051 23.336C117.675 23 118.179 22.496 118.563 21.824C118.947 21.152 119.139 20.336 119.139 19.376C119.139 18.416 118.955 17.608 118.587 16.952C118.219 16.28 117.731 15.776 117.123 15.44C116.515 15.104 115.859 14.936 115.155 14.936C114.451 14.936 113.795 15.104 113.187 15.44C112.595 15.776 112.123 16.28 111.771 16.952C111.419 17.608 111.243 18.416 111.243 19.376C111.243 20.8 111.603 21.904 112.323 22.688C113.059 23.456 113.979 23.84 115.083 23.84ZM130.388 26.216C129.14 26.216 128.012 25.936 127.004 25.376C125.996 24.8 125.204 24 124.628 22.976C124.052 21.936 123.764 20.736 123.764 19.376C123.764 18.032 124.06 16.84 124.652 15.8C125.244 14.76 126.052 13.96 127.076 13.4C128.1 12.84 129.244 12.56 130.508 12.56C131.772 12.56 132.916 12.84 133.94 13.4C134.964 13.96 135.772 14.76 136.364 15.8C136.956 16.84 137.252 18.032 137.252 19.376C137.252 20.72 136.948 21.912 136.34 22.952C135.732 23.992 134.9 24.8 133.844 25.376C132.804 25.936 131.652 26.216 130.388 26.216ZM130.388 23.84C131.092 23.84 131.748 23.672 132.356 23.336C132.98 23 133.484 22.496 133.868 21.824C134.252 21.152 134.444 20.336 134.444 19.376C134.444 18.416 134.26 17.608 133.892 16.952C133.524 16.28 133.036 15.776 132.428 15.44C131.82 15.104 131.164 14.936 130.46 14.936C129.756 14.936 129.1 15.104 128.492 15.44C127.9 15.776 127.428 16.28 127.076 16.952C126.724 17.608 126.548 18.416 126.548 19.376C126.548 20.8 126.908 21.904 127.628 22.688C128.364 23.456 129.284 23.84 130.388 23.84ZM142.692 8.24V26H139.956V8.24H142.692ZM149.02 14.744C149.484 14.104 150.116 13.584 150.916 13.184C151.732 12.768 152.636 12.56 153.628 12.56C154.796 12.56 155.852 12.84 156.796 13.4C157.74 13.96 158.484 14.76 159.028 15.8C159.572 16.824 159.844 18 159.844 19.328C159.844 20.656 159.572 21.848 159.028 22.904C158.484 23.944 157.732 24.76 156.772 25.352C155.828 25.928 154.78 26.216 153.628 26.216C152.604 26.216 151.692 26.016 150.892 25.616C150.108 25.216 149.484 24.704 149.02 24.08V26H146.284V8.24H149.02V14.744ZM157.06 19.328C157.06 18.416 156.868 17.632 156.484 16.976C156.116 16.304 155.62 15.8 154.996 15.464C154.388 15.112 153.732 14.936 153.028 14.936C152.34 14.936 151.684 15.112 151.06 15.464C150.452 15.816 149.956 16.328 149.572 17C149.204 17.672 149.02 18.464 149.02 19.376C149.02 20.288 149.204 21.088 149.572 21.776C149.956 22.448 150.452 22.96 151.06 23.312C151.684 23.664 152.34 23.84 153.028 23.84C153.732 23.84 154.388 23.664 154.996 23.312C155.62 22.944 156.116 22.416 156.484 21.728C156.868 21.04 157.06 20.24 157.06 19.328ZM168.286 26.216C167.038 26.216 165.91 25.936 164.902 25.376C163.894 24.8 163.102 24 162.526 22.976C161.95 21.936 161.662 20.736 161.662 19.376C161.662 18.032 161.958 16.84 162.55 15.8C163.142 14.76 163.95 13.96 164.974 13.4C165.998 12.84 167.142 12.56 168.406 12.56C169.67 12.56 170.814 12.84 171.838 13.4C172.862 13.96 173.67 14.76 174.262 15.8C174.854 16.84 175.15 18.032 175.15 19.376C175.15 20.72 174.846 21.912 174.238 22.952C173.63 23.992 172.798 24.8 171.742 25.376C170.702 25.936 169.55 26.216 168.286 26.216ZM168.286 23.84C168.99 23.84 169.646 23.672 170.254 23.336C170.878 23 171.382 22.496 171.766 21.824C172.15 21.152 172.342 20.336 172.342 19.376C172.342 18.416 172.158 17.608 171.79 16.952C171.422 16.28 170.934 15.776 170.326 15.44C169.718 15.104 169.062 14.936 168.358 14.936C167.654 14.936 166.998 15.104 166.39 15.44C165.798 15.776 165.326 16.28 164.974 16.952C164.622 17.608 164.446 18.416 164.446 19.376C164.446 20.8 164.806 21.904 165.526 22.688C166.262 23.456 167.182 23.84 168.286 23.84ZM183.519 19.304L187.791 26H184.695L181.839 21.512L179.151 26H176.295L180.567 19.496L176.295 12.776H179.391L182.247 17.264L184.935 12.776H187.791L183.519 19.304Z" fill="white" fill-opacity="0.78"/>
<path d="M102.478 46.454V47.786H97.024V52.016H101.452V53.348H97.024V59H95.386V46.454H102.478ZM106.094 50.738C106.382 50.174 106.79 49.736 107.318 49.424C107.858 49.112 108.512 48.956 109.28 48.956V50.648H108.848C107.012 50.648 106.094 51.644 106.094 53.636V59H104.456V49.136H106.094V50.738ZM120.171 53.69C120.171 54.002 120.153 54.332 120.117 54.68H112.233C112.293 55.652 112.623 56.414 113.223 56.966C113.835 57.506 114.573 57.776 115.437 57.776C116.145 57.776 116.733 57.614 117.201 57.29C117.681 56.954 118.017 56.51 118.209 55.958H119.973C119.709 56.906 119.181 57.68 118.389 58.28C117.597 58.868 116.613 59.162 115.437 59.162C114.501 59.162 113.661 58.952 112.917 58.532C112.185 58.112 111.609 57.518 111.189 56.75C110.769 55.97 110.559 55.07 110.559 54.05C110.559 53.03 110.763 52.136 111.171 51.368C111.579 50.6 112.149 50.012 112.881 49.604C113.625 49.184 114.477 48.974 115.437 48.974C116.373 48.974 117.201 49.178 117.921 49.586C118.641 49.994 119.193 50.558 119.577 51.278C119.973 51.986 120.171 52.79 120.171 53.69ZM118.479 53.348C118.479 52.724 118.341 52.19 118.065 51.746C117.789 51.29 117.411 50.948 116.931 50.72C116.463 50.48 115.941 50.36 115.365 50.36C114.537 50.36 113.829 50.624 113.241 51.152C112.665 51.68 112.335 52.412 112.251 53.348H118.479ZM131.333 53.69C131.333 54.002 131.315 54.332 131.279 54.68H123.395C123.455 55.652 123.785 56.414 124.385 56.966C124.997 57.506 125.735 57.776 126.599 57.776C127.307 57.776 127.895 57.614 128.363 57.29C128.843 56.954 129.179 56.51 129.371 55.958H131.135C130.871 56.906 130.343 57.68 129.551 58.28C128.759 58.868 127.775 59.162 126.599 59.162C125.663 59.162 124.823 58.952 124.079 58.532C123.347 58.112 122.771 57.518 122.351 56.75C121.931 55.97 121.721 55.07 121.721 54.05C121.721 53.03 121.925 52.136 122.333 51.368C122.741 50.6 123.311 50.012 124.043 49.604C124.787 49.184 125.639 48.974 126.599 48.974C127.535 48.974 128.363 49.178 129.083 49.586C129.803 49.994 130.355 50.558 130.739 51.278C131.135 51.986 131.333 52.79 131.333 53.69ZM129.641 53.348C129.641 52.724 129.503 52.19 129.227 51.746C128.951 51.29 128.573 50.948 128.093 50.72C127.625 50.48 127.103 50.36 126.527 50.36C125.699 50.36 124.991 50.624 124.403 51.152C123.827 51.68 123.497 52.412 123.413 53.348H129.641Z" fill="#FFA537" fill-opacity="0.55"/>
<g opacity="0.78" clip-path="url(#clip0_50_123)">
<path d="M32 65.152L60 49.13V17.114L32 33.134V65.152Z" fill="#000001"/>
<path d="M38 50.1112V55L50 47.8888V43L38 50.1112Z" fill="white"/>
<path d="M32 1.15198L4 17.114V49.13L32 65.152V33.134L60 17.114L32 1.15198Z" fill="url(#paint0_linear_50_123)"/>
</g>
<defs>
<linearGradient id="paint0_linear_50_123" x1="4.36" y1="47.51" x2="60.082" y2="18.564" gradientUnits="userSpaceOnUse">
<stop offset="0.043" stop-color="#FF8618"/>
<stop offset="0.382" stop-color="#FF246E"/>
<stop offset="0.989" stop-color="#AF1DF5"/>
</linearGradient>
<clipPath id="clip0_50_123">
<rect width="64" height="64" fill="white" transform="translate(0 1)"/>
</clipPath>
</defs>
</svg>
